<svg width="1289" height="739" viewBox="0 0 1289 739" fill="none" xmlns="http://www.w3.org/2000/svg">
<path d="M727.371 358.732L536.738 263.231C526.737 258.221 515.925 268.412 520.336 278.692L557.204 364.618C558.479 367.589 558.501 370.948 557.266 373.935L519.971 464.12C515.692 474.466 526.66 484.517 536.594 479.353L727.53 380.108C736.224 375.59 736.131 363.12 727.371 358.732Z" fill="#F1AC2F"/>
<path d="M280.894 9.53144C333.671 -2.13998 362.386 0.189615 459.885 0.189644C577.894 0.189673 718.894 -4.46921 621.394 123.53C568.551 192.904 553.394 194.031 439.894 189.031C436.535 188.883 430.46 188.835 422.297 188.836L422.426 189.163C421.504 189.034 420.529 188.927 419.507 188.836C413.505 188.844 406.523 188.874 398.774 188.907C370.337 190.694 331.717 197.875 313.941 202.924C290.318 209.634 268.42 221.21 249.654 236.904C230.888 252.599 215.671 272.064 204.983 294.049C194.295 316.034 188.371 340.05 187.595 364.552C186.819 389.053 191.207 413.497 200.476 436.311C209.745 459.124 223.69 479.801 241.414 497.011C259.137 514.221 280.247 527.581 303.382 536.234C322.402 543.346 345.862 549.439 367.262 550.611C371.204 550.643 375.064 550.684 378.863 550.731C379.513 550.706 380.159 550.677 380.802 550.641V550.754C427.43 551.345 465.222 552.641 531.394 548.531C557.843 546.889 584.894 553.031 644.394 644.741C691.744 717.725 623.394 720.603 566.394 733.031C513.215 742.687 324.969 739.566 272.894 725.031C220.825 710.498 176.636 689.531 125.551 644.741C84.8392 609.046 52.5446 564.682 30.8961 514.939C9.24968 465.2 -1.24626 411.252 0.1178 356.987C1.48198 302.72 14.6757 249.382 38.8229 200.834C62.9728 152.281 97.5052 109.677 140.028 76.2033C182.558 42.7246 228.121 21.2022 280.894 9.53144Z" fill="#06164A"/>
<path d="M791.11 31.6818C864.226 1.39621 945.292 -3.91631 1021.74 16.5666C1098.18 37.0496 1165.73 82.184 1213.91 144.97C1262.08 207.756 1288.2 284.685 1288.2 363.825C1288.2 442.965 1262.08 519.894 1213.91 582.68C1165.73 645.466 1102.34 700.548 1025.89 721.031C949.451 741.514 868.01 741.817 794.894 711.531C721.778 681.246 665.964 633.569 626.394 565.031L609.894 539.531L769.394 460.031L769.691 460.506L769.847 460.369L782.97 476.578C807.508 506.887 839.433 532.674 873.749 542.047C909.559 551.829 947.538 550.113 982.321 537.143C1017.1 524.172 1046.93 500.601 1067.59 469.761C1088.26 438.921 1098.71 402.368 1097.47 365.267C1096.24 328.165 1083.38 292.389 1060.71 262.991C1038.04 233.594 1006.71 212.06 971.139 201.433C935.571 190.805 897.561 191.621 862.481 203.764C827.401 215.907 797.022 238.764 775.635 269.107L764.113 285.453L763.323 284.897L762.894 285.531L687.894 245.031L609.894 204.031L617.345 184.07C656.915 115.533 717.994 61.9674 791.11 31.6818Z" fill="#06164A"/>
</svg>
